<svg xmlns="http://www.w3.org/2000/svg" viewBox="0 0 100 100">
  <circle cx="50" cy="50" r="45" fill="#FF8C00"/>
  <path d="M40 20 Q50 14 60 20 Q65 30 60 36 Q55 28 50 26 Q45 28 40 36 Q35 30 40 20" fill="#FFD700"/>
  <ellipse cx="42" cy="40" rx="3" ry="2" fill="#8B0000"/>
  <ellipse cx="58" cy="40" rx="3" ry="2" fill="#8B0000"/>
  <circle cx="42" cy="39" r="1.5" fill="#fff"/>
  <circle cx="58" cy="39" r="1.5" fill="#fff"/>
  <path d="M38 48 Q50 56 62 48" stroke="#8B4513" stroke-width="2" fill="none"/>
  <path d="M30 65 Q50 58 70 65" fill="#FFD700" opacity="0.6"/>
  <path d="M28 70 Q50 62 72 70" fill="#FF8C00"/>
  <path d="M35 76 Q50 70 65 76" fill="#FFD700" opacity="0.4"/>
</svg>